<svg width="177" height="48" viewBox="0 0 177 48" fill="none" xmlns="http://www.w3.org/2000/svg">
<path d="M82.1169 30.8509V36.041H57.1208V2.70789H81.4509V7.89798H63.3106V16.5649H79.4036V21.6604H63.3106V30.8509H82.1169Z" fill="#0071CE"/>
<path d="M118.635 26.9931C118.635 32.7067 114.159 36.041 105.589 36.041H89.0205V2.70789H104.637C112.635 2.70789 116.92 6.08888 116.92 11.3748C116.92 14.8038 115.206 17.3269 112.635 18.7083C116.206 19.8513 118.635 22.6608 118.635 26.9943V26.9931ZM95.209 7.56615V16.7567H103.969C108.254 16.7567 110.683 15.2327 110.683 12.1848C110.683 9.13682 108.254 7.56615 103.969 7.56615H95.209ZM112.397 26.3749C112.397 23.0418 109.873 21.5658 105.207 21.5658H95.209V31.184H105.207C109.873 31.184 112.397 29.708 112.397 26.3749Z" fill="#0071CE"/>
<path d="M125.252 2.70911H131.442V36.0423H125.252V2.70911Z" fill="#0071CE"/>
<path d="M171.054 36.041L171.006 13.9459L160.056 32.2311H157.294L146.344 14.2311V36.0398H140.441V2.70667H145.536L158.771 24.8018L171.769 2.70667H176.864L176.912 36.0398H171.055L171.054 36.041Z" fill="#0071CE"/>
<path d="M51.2211 2H50.238V45.1664H51.2211V2Z" fill="#FCB61A" stroke="#FCB61A" stroke-width="4" stroke-miterlimit="10"/>
<path d="M60.9388 44.4843V45.1516H57.2461V39.7845H60.8368V40.4519H57.9723V42.1012H60.5234V42.7526H57.9723V44.4855H60.9388V44.4843Z" fill="#FCB61A"/>
<path d="M62.0142 39.4613H62.7121V45.1516H62.0142V39.4613Z" fill="#FCB61A"/>
<path d="M67.5107 43.3646H64.3845C64.4717 44.0775 65.0174 44.5531 65.7805 44.5531C66.2315 44.5531 66.6087 44.3921 66.8926 44.0627L67.2785 44.5383C66.9295 44.9673 66.3986 45.1983 65.7596 45.1983C64.516 45.1983 63.6877 44.3319 63.6877 43.1201C63.6877 41.9083 64.5086 41.0492 65.622 41.0492C66.7353 41.0492 67.5267 41.8923 67.5267 43.1422C67.5267 43.2036 67.5193 43.2958 67.5119 43.3646H67.5107ZM64.3845 42.8349H66.8557C66.7832 42.1528 66.2954 41.6698 65.6195 41.6698C64.9436 41.6698 64.4558 42.1455 64.3833 42.8349H64.3845Z" fill="#FCB61A"/>
<path d="M69.9894 43.2565L69.1894 44.0381V45.1504H68.4915V39.4601H69.1894V43.1102L71.2908 41.0861H72.1338L70.5129 42.7649L72.2935 45.1492H71.4358L69.9894 43.2553V43.2565Z" fill="#FCB61A"/>
<path d="M75.1357 44.9132C74.9243 45.1049 74.6048 45.1971 74.2927 45.1971C73.5148 45.1971 73.0712 44.7448 73.0712 43.9239V41.692H72.4175V41.0861H73.0712V40.1963H73.7692V41.0861H74.874V41.692H73.7692V43.8931C73.7692 44.3307 73.9867 44.5752 74.3726 44.5752C74.5766 44.5752 74.772 44.5064 74.9182 44.3835L75.1357 44.912V44.9132Z" fill="#FCB61A"/>
<path d="M78.0506 41.048V41.7608C77.9928 41.7534 77.9412 41.7534 77.8909 41.7534C77.1425 41.7534 76.6767 42.2364 76.6767 43.1262V45.1504H75.9788V41.0861H76.6473V41.7682C76.8943 41.2925 77.3747 41.048 78.0506 41.048Z" fill="#FCB61A"/>
<path d="M78.5164 43.1188C78.5164 41.907 79.3667 41.048 80.5231 41.048C81.6794 41.048 82.5224 41.907 82.5224 43.1188C82.5224 44.3307 81.6794 45.1971 80.5231 45.1971C79.3667 45.1971 78.5164 44.3307 78.5164 43.1188ZM81.8171 43.1188C81.8171 42.2524 81.2641 41.692 80.5231 41.692C79.7821 41.692 79.2217 42.2512 79.2217 43.1188C79.2217 43.9865 79.7821 44.5531 80.5231 44.5531C81.2641 44.5531 81.8171 43.9853 81.8171 43.1188Z" fill="#FCB61A"/>
<path d="M87.1453 42.8116V45.1504H86.4474V42.8964C86.4474 42.0988 86.0689 41.708 85.4077 41.708C84.6667 41.708 84.1863 42.1762 84.1863 43.0574V45.1504H83.4883V41.0861H84.1568V41.6994C84.4406 41.2852 84.9346 41.048 85.5454 41.048C86.483 41.048 87.1453 41.6158 87.1453 42.8116Z" fill="#FCB61A"/>
<path d="M94.8723 43.7014C94.8723 44.6219 94.2111 45.1504 92.9245 45.1504H90.4963V39.7833H92.7795C93.9494 39.7833 94.6044 40.3044 94.6044 41.1709C94.6044 41.7534 94.3205 42.1602 93.9211 42.3667C94.495 42.5351 94.8735 42.9873 94.8735 43.7014H94.8723ZM91.2226 40.404V42.1221H92.7132C93.4542 42.1221 93.8769 41.8309 93.8769 41.2631C93.8769 40.6953 93.4554 40.404 92.7132 40.404H91.2226ZM94.1386 43.64C94.1386 43.0193 93.7024 42.7428 92.8951 42.7428H91.2226V44.5298H92.8951C93.7024 44.5298 94.1386 44.2618 94.1386 43.64Z" fill="#FCB61A"/>
<path d="M95.7742 39.8288C95.7742 39.5609 95.9782 39.3458 96.246 39.3458C96.5139 39.3458 96.7192 39.5523 96.7192 39.8141C96.7192 40.0906 96.5225 40.3044 96.246 40.3044C95.9696 40.3044 95.7742 40.098 95.7742 39.8288ZM95.8971 41.0873H96.595V45.1517H95.8971V41.0873Z" fill="#FCB61A"/>
<path d="M101.582 42.8116V45.1504H100.884V42.8964C100.884 42.0988 100.505 41.708 99.8443 41.708C99.1033 41.708 98.6228 42.1762 98.6228 43.0574V45.1504H97.9248V41.0861H98.5933V41.6994C98.8772 41.2852 99.3712 41.048 99.9819 41.048C100.92 41.048 101.581 41.6158 101.581 42.8116H101.582Z" fill="#FCB61A"/>
<path d="M105.929 42.6973V45.1516H105.268V44.6145C105.036 44.982 104.607 45.1971 104.004 45.1971C103.131 45.1971 102.58 44.7067 102.58 44.0013C102.58 43.3499 102.979 42.8128 104.128 42.8128H105.233V42.6666C105.233 42.0459 104.891 41.6846 104.2 41.6846C103.742 41.6846 103.278 41.853 102.979 42.1221L102.688 41.5703C103.087 41.2323 103.662 41.0492 104.28 41.0492C105.335 41.0492 105.931 41.5863 105.931 42.6973H105.929ZM105.231 43.9091V43.3413H104.155C103.464 43.3413 103.268 43.6252 103.268 43.9705C103.268 44.3773 103.587 44.6305 104.118 44.6305C104.649 44.6305 105.056 44.3774 105.23 43.9103L105.231 43.9091Z" fill="#FCB61A"/>
<path d="M109.215 38.7559C109.215 38.5027 109.405 38.3036 109.644 38.3036C109.884 38.3036 110.073 38.5027 110.073 38.7559C110.073 39.009 109.884 39.2081 109.644 39.2081C109.405 39.2081 109.215 39.0164 109.215 38.7559ZM109.28 39.7833H110.008V45.1504H109.28V39.7833Z" fill="#FCB61A"/>
<path d="M115.067 39.4613V45.1516H114.399V44.5076C114.087 44.9673 113.591 45.1983 113.025 45.1983C111.898 45.1983 111.077 44.3626 111.077 43.1201C111.077 41.8775 111.899 41.0492 113.025 41.0492C113.57 41.0492 114.05 41.2643 114.369 41.7006V39.4613H115.067ZM114.377 43.1188C114.377 42.2524 113.816 41.692 113.083 41.692C112.349 41.692 111.781 42.2512 111.781 43.1188C111.781 43.9865 112.342 44.5531 113.083 44.5531C113.824 44.5531 114.377 43.9853 114.377 43.1188Z" fill="#FCB61A"/>
<path d="M119.443 42.6973V45.1516H118.782V44.6145C118.55 44.982 118.121 45.1971 117.518 45.1971C116.645 45.1971 116.093 44.7067 116.093 44.0013C116.093 43.3499 116.493 42.8128 117.642 42.8128H118.746V42.6666C118.746 42.0459 118.405 41.6846 117.714 41.6846C117.256 41.6846 116.791 41.853 116.493 42.1221L116.201 41.5703C116.601 41.2323 117.176 41.0492 117.794 41.0492C118.848 41.0492 119.444 41.5863 119.444 42.6973H119.443ZM118.745 43.9091V43.3413H117.669C116.978 43.3413 116.781 43.6252 116.781 43.9705C116.781 44.3773 117.101 44.6305 117.632 44.6305C118.163 44.6305 118.569 44.3774 118.744 43.9103L118.745 43.9091Z" fill="#FCB61A"/>
<path d="M122.809 41.048V41.7608C122.751 41.7534 122.7 41.7534 122.649 41.7534C121.901 41.7534 121.435 42.2364 121.435 43.1262V45.1504H120.737V41.0861H121.406V41.7682C121.653 41.2925 122.133 41.048 122.809 41.048Z" fill="#FCB61A"/>
<path d="M127.112 43.1188C127.112 44.3232 126.29 45.1896 125.178 45.1896C124.066 45.1896 123.273 44.3466 123.273 43.0967C123.273 43.0352 123.281 42.943 123.288 42.8742H126.414C126.327 42.1614 125.782 41.6858 125.018 41.6858C124.567 41.6858 124.19 41.8468 123.906 42.1761L123.52 41.7005C123.869 41.2716 124.4 41.0405 125.039 41.0405C126.283 41.0405 127.111 41.907 127.111 43.1188H127.112ZM126.414 43.4027H123.943C124.016 44.0848 124.504 44.5678 125.179 44.5678C125.855 44.5678 126.342 44.0922 126.416 43.4027H126.414Z" fill="#FCB61A"/>
<path d="M131.546 43.3646H128.42C128.507 44.0775 129.053 44.5531 129.816 44.5531C130.267 44.5531 130.644 44.3921 130.928 44.0627L131.314 44.5383C130.965 44.9673 130.434 45.1983 129.795 45.1983C128.551 45.1983 127.723 44.3319 127.723 43.1201C127.723 41.9083 128.545 41.0492 129.657 41.0492C130.769 41.0492 131.562 41.8923 131.562 43.1422C131.562 43.2036 131.555 43.2958 131.547 43.3646H131.546ZM128.421 42.8349H130.892C130.82 42.1528 130.333 41.6698 129.656 41.6698C128.979 41.6698 128.494 42.1455 128.42 42.8349H128.421Z" fill="#FCB61A"/>
<path d="M134.695 44.9132C134.483 45.1049 134.164 45.1971 133.852 45.1971C133.074 45.1971 132.63 44.7448 132.63 43.9239V41.692H131.976V41.0861H132.63V40.1963H133.328V41.0861H134.433V41.692H133.328V43.8931C133.328 44.3307 133.547 44.5752 133.931 44.5752C134.135 44.5752 134.331 44.5064 134.477 44.3835L134.695 44.912V44.9132Z" fill="#FCB61A"/>
<path d="M141.935 42.8116V45.1504H141.237V42.8964C141.237 42.0988 140.873 41.708 140.242 41.708C139.544 41.708 139.085 42.1762 139.085 43.0574V45.1504H138.387V42.8964C138.387 42.0988 138.024 41.708 137.392 41.708C136.694 41.708 136.236 42.1762 136.236 43.0574V45.1504H135.538V41.0861H136.206V41.692C136.483 41.2778 136.954 41.048 137.537 41.048C138.119 41.048 138.62 41.2938 138.874 41.7989C139.165 41.3392 139.702 41.048 140.357 41.048C141.295 41.048 141.935 41.6158 141.935 42.8116Z" fill="#FCB61A"/>
<path d="M146.725 43.1188C146.725 44.3232 145.903 45.1896 144.791 45.1896C143.679 45.1896 142.886 44.3466 142.886 43.0967C142.886 43.0352 142.893 42.943 142.901 42.8742H146.027C145.94 42.1614 145.394 41.6858 144.631 41.6858C144.18 41.6858 143.803 41.8468 143.519 42.1761L143.133 41.7005C143.482 41.2716 144.013 41.0405 144.652 41.0405C145.895 41.0405 146.724 41.907 146.724 43.1188H146.725ZM146.027 43.4027H143.556C143.628 44.0848 144.116 44.5678 144.792 44.5678C145.468 44.5678 145.954 44.0922 146.028 43.4027H146.027Z" fill="#FCB61A"/>
<path d="M154.467 45.1504L154.459 41.2397L152.62 44.499H152.286L150.446 41.2631V45.1504H149.748V39.7833H150.344L152.466 43.5564L154.56 39.7833H155.156L155.164 45.1504H154.466H154.467Z" fill="#FCB61A"/>
<path d="M156.234 43.1188C156.234 41.907 157.084 41.048 158.241 41.048C159.397 41.048 160.24 41.907 160.24 43.1188C160.24 44.3307 159.397 45.1971 158.241 45.1971C157.084 45.1971 156.234 44.3307 156.234 43.1188ZM159.533 43.1188C159.533 42.2524 158.98 41.692 158.239 41.692C157.498 41.692 156.938 42.2512 156.938 43.1188C156.938 43.9865 157.498 44.5531 158.239 44.5531C158.98 44.5531 159.533 43.9853 159.533 43.1188Z" fill="#FCB61A"/>
<path d="M164.841 39.4613V45.1516H164.172V44.5076C163.86 44.9673 163.365 45.1983 162.798 45.1983C161.671 45.1983 160.851 44.3626 160.851 43.1201C160.851 41.8775 161.673 41.0492 162.798 41.0492C163.344 41.0492 163.823 41.2643 164.143 41.7006V39.4613H164.841ZM164.15 43.1188C164.15 42.2524 163.59 41.692 162.856 41.692C162.122 41.692 161.555 42.2512 161.555 43.1188C161.555 43.9865 162.115 44.5531 162.856 44.5531C163.597 44.5531 164.15 43.9853 164.15 43.1188Z" fill="#FCB61A"/>
<path d="M169.755 41.0873V45.1516H169.094V44.5383C168.81 44.9599 168.331 45.1983 167.785 45.1983C166.788 45.1983 166.127 44.6231 166.127 43.4273V41.0885H166.825V43.3425C166.825 44.1401 167.204 44.5383 167.865 44.5383C168.592 44.5383 169.057 44.0627 169.057 43.1889V41.0873H169.755Z" fill="#FCB61A"/>
<path d="M171.084 39.4613H171.782V45.1516H171.084V39.4613Z" fill="#FCB61A"/>
<path d="M176.704 41.0873V45.1516H176.043V44.5383C175.759 44.9599 175.28 45.1983 174.734 45.1983C173.738 45.1983 173.076 44.6231 173.076 43.4273V41.0885H173.774V43.3425C173.774 44.1401 174.153 44.5383 174.814 44.5383C175.541 44.5383 176.006 44.0627 176.006 43.1889V41.0873H176.704Z" fill="#FCB61A"/>
<path d="M18.0519 45.1666H0.725098C1.48944 44.5803 2.25379 43.9953 3.01814 43.4091C7.25153 43.339 11.4849 43.2702 15.7171 43.2002C15.7908 37.0699 15.8658 30.9396 15.9395 24.8093L27.4575 20.8433L27.5522 2.70435C33.4175 6.59661 39.2828 10.4877 45.1481 14.3799C45.1272 24.6421 45.1075 34.9044 45.0866 45.1666H42.7518C42.7469 35.4808 42.742 25.7937 42.7383 16.1079L29.5859 6.68633L29.5159 20.1341L36.7722 17.6356L36.9983 45.1543H27.3334L27.4489 23.0186L17.9954 26.273C18.015 32.5705 18.0347 38.8679 18.0544 45.1653L18.0519 45.1666ZM29.3954 43.1006H34.9265L34.7409 20.5065L29.5036 22.3095L29.3954 43.0994V43.1006Z" fill="#0071CE"/>
<path d="M45.3323 45.4123H42.506L42.4925 16.2344L29.8291 7.1631L29.7628 19.7887L37.0142 17.2926L37.244 45.4H27.0839L27.1982 23.3639L18.2386 26.4487L18.2976 45.4123H0L2.93204 43.1644L15.4737 42.958L15.6961 24.6322L27.2129 20.6662L27.3088 2.24707L45.3938 14.2471L45.3311 45.4111L45.3323 45.4123ZM42.9975 44.9207H44.8408L44.901 14.5113L27.7942 3.16022L27.7008 21.0177L16.1815 24.9837L15.9579 43.441L3.10039 43.6524L1.44759 44.9195H17.8036L17.7446 26.0972L27.6922 22.6719L27.5767 44.9072H36.7476L36.5264 17.9784L29.2663 20.4782L29.3401 6.20816L42.9815 15.98L42.9951 44.9195L42.9975 44.9207ZM35.1734 43.3463H29.1484L29.259 22.1349L34.9842 20.1635L35.1747 43.3463H35.1734ZM29.6424 42.8547H34.6782L34.4976 20.8506L29.748 22.4864L29.6424 42.8547Z" fill="#0071CE"/>
<path d="M10.3947 39.3016C10.3235 33.309 10.2522 27.3151 10.1809 21.3225C13.9559 19.9804 17.731 18.6396 21.506 17.2975C22.7508 17.6367 23.9957 17.9759 25.2405 18.3163C20.91 19.8034 16.5808 21.2905 12.2503 22.7776L12.4469 40.7285C11.7624 40.2529 11.078 39.7773 10.3935 39.3016H10.3947Z" fill="#0071CE"/>
<path d="M12.699 41.2017L10.1504 39.4307L9.93286 21.1492L21.4964 17.0394L26.0751 18.2881L12.4975 22.951L12.6978 41.2005L12.699 41.2017ZM10.6395 39.1714L12.1976 40.2542L12.0035 22.6019L24.4063 18.3422L21.5172 17.5544L10.4305 21.4946L10.6407 39.1714H10.6395Z" fill="#0071CE"/>
<path d="M4.23457 36.2206C4.1633 30.1591 4.09203 24.0989 4.02075 18.0374C7.32268 16.8858 10.6234 15.733 13.9253 14.5814C15.019 14.9206 16.1126 15.2598 17.2063 15.6003C13.5013 16.8969 9.79513 18.1935 6.09014 19.4901L6.28675 37.4422C5.60228 37.0354 4.91781 36.6286 4.23334 36.2206H4.23457Z" fill="#0071CE"/>
<path d="M6.53885 37.8773L3.99021 36.3619L3.77271 17.8641L13.9206 14.3234L17.9905 15.5868L6.33732 19.6646L6.53762 37.8785L6.53885 37.8773ZM4.47929 36.0805L6.03748 37.0072L5.84332 19.3156L16.4237 15.6138L13.9304 14.8395L4.26916 18.2107L4.47929 36.0793V36.0805Z" fill="#0071CE"/>
</svg>
