<svg width="120" height="32" viewBox="0 0 120 32" fill="none" xmlns="http://www.w3.org/2000/svg">
<path d="M55.7002 21.1449V24.9816H38.7452V0.340698H55.2484V4.17738H42.9438V10.5843H53.8598V14.351H42.9438V21.1449H55.7002Z" fill="#FCB61A"/>
<path d="M80.4703 18.293C80.4703 22.5167 77.4346 24.9815 71.6215 24.9815H60.3829V0.340607H70.9755C76.401 0.340607 79.3075 2.83995 79.3075 6.7475C79.3075 9.28227 78.1447 11.1475 76.401 12.1686C78.8232 13.0136 80.4703 15.0904 80.4703 18.2939V18.293ZM64.5806 3.93199V10.7259H70.5229C73.4294 10.7259 75.0765 9.59935 75.0765 7.34621C75.0765 5.09308 73.4294 3.93199 70.5229 3.93199H64.5806ZM76.2393 17.836C76.2393 15.3721 74.5272 14.281 71.3623 14.281H64.5806V21.391H71.3623C74.5272 21.391 76.2393 20.2999 76.2393 17.836Z" fill="#FCB61A"/>
<path d="M84.959 0.341431H89.1575V24.9823H84.959V0.341431Z" fill="#FCB61A"/>
<path d="M116.027 24.9816L115.994 8.6482L108.566 22.1652H106.693L99.2658 8.85898V24.9807H95.2615V0.339783H98.7173L107.695 16.6732L116.512 0.339783H119.967L120 24.9807H116.027L116.027 24.9816Z" fill="#FCB61A"/>
<path d="M35 0V0V32V32V0Z" stroke="#FCB61A" stroke-width="4" stroke-miterlimit="10"/>
<path d="M41.3351 31.2232V31.7166H38.8303V27.7491H41.2659V28.2424H39.323V29.4616H41.0534V29.9431H39.323V31.2241H41.3351V31.2232Z" fill="white"/>
<path d="M42.0645 27.5101H42.5379V31.7166H42.0645V27.5101Z" fill="white"/>
<path d="M45.7928 30.3956H43.6723C43.7315 30.9225 44.1016 31.2741 44.6192 31.2741C44.9251 31.2741 45.181 31.1551 45.3736 30.9116L45.6353 31.2632C45.3986 31.5803 45.0385 31.7511 44.605 31.7511C43.7615 31.7511 43.1997 31.1106 43.1997 30.2148C43.1997 29.319 43.7565 28.6839 44.5117 28.6839C45.2669 28.6839 45.8037 29.3072 45.8037 30.2311C45.8037 30.2766 45.7987 30.3447 45.7937 30.3956H45.7928ZM43.6723 30.004H45.3485C45.2994 29.4998 44.9685 29.1427 44.51 29.1427C44.0516 29.1427 43.7207 29.4943 43.6715 30.004H43.6723Z" fill="white"/>
<path d="M47.4741 30.3156L46.9315 30.8934V31.7157H46.458V27.5092H46.9315V30.2075L48.3568 28.7112H48.9286L47.8292 29.9522L49.037 31.7147H48.4552L47.4741 30.3147V30.3156Z" fill="white"/>
<path d="M50.9649 31.5403C50.8215 31.682 50.6048 31.7502 50.3931 31.7502C49.8654 31.7502 49.5645 31.4158 49.5645 30.8089V29.1591H49.1211V28.7112H49.5645V28.0534H50.038V28.7112H50.7873V29.1591H50.038V30.7862C50.038 31.1097 50.1855 31.2905 50.4473 31.2905C50.5856 31.2905 50.7182 31.2396 50.8173 31.1487L50.9649 31.5394V31.5403Z" fill="white"/>
<path d="M52.9421 28.683V29.21C52.9029 29.2045 52.8679 29.2045 52.8337 29.2045C52.3261 29.2045 52.0102 29.5616 52.0102 30.2193V31.7157H51.5367V28.7112H51.9902V29.2154C52.1577 28.8638 52.4836 28.683 52.9421 28.683Z" fill="white"/>
<path d="M53.2581 30.2139C53.2581 29.3181 53.8349 28.683 54.6192 28.683C55.4036 28.683 55.9754 29.3181 55.9754 30.2139C55.9754 31.1097 55.4036 31.7502 54.6192 31.7502C53.8349 31.7502 53.2581 31.1097 53.2581 30.2139ZM55.4969 30.2139C55.4969 29.5734 55.1218 29.1591 54.6192 29.1591C54.1166 29.1591 53.7365 29.5725 53.7365 30.2139C53.7365 30.8553 54.1166 31.2741 54.6192 31.2741C55.1218 31.2741 55.4969 30.8544 55.4969 30.2139Z" fill="white"/>
<path d="M59.1111 29.9867V31.7157H58.6377V30.0494C58.6377 29.4598 58.3809 29.1709 57.9325 29.1709C57.4299 29.1709 57.1039 29.517 57.1039 30.1684V31.7157H56.6305V28.7112H57.0839V29.1645C57.2765 28.8584 57.6116 28.683 58.0258 28.683C58.6618 28.683 59.1111 29.1027 59.1111 29.9867Z" fill="white"/>
<path d="M64.3524 30.6445C64.3524 31.325 63.9039 31.7157 63.0312 31.7157H61.3842V27.7481H62.9329C63.7264 27.7481 64.1707 28.1334 64.1707 28.7739C64.1707 29.2045 63.9781 29.5052 63.7072 29.6579C64.0965 29.7823 64.3532 30.1167 64.3532 30.6445H64.3524ZM61.8768 28.2069V29.4771H62.8879C63.3905 29.4771 63.6772 29.2617 63.6772 28.842C63.6772 28.4223 63.3913 28.2069 62.8879 28.2069H61.8768ZM63.8547 30.5991C63.8547 30.1403 63.5589 29.9359 63.0112 29.9359H61.8768V31.2568H63.0112C63.5589 31.2568 63.8547 31.0588 63.8547 30.5991Z" fill="white"/>
<path d="M64.9642 27.7817C64.9642 27.5837 65.1026 27.4247 65.2843 27.4247C65.466 27.4247 65.6052 27.5773 65.6052 27.7708C65.6052 27.9753 65.4719 28.1333 65.2843 28.1333C65.0968 28.1333 64.9642 27.9807 64.9642 27.7817ZM65.0476 28.7121H65.521V31.7166H65.0476V28.7121Z" fill="white"/>
<path d="M68.9035 29.9867V31.7157H68.43V30.0494C68.43 29.4598 68.1733 29.1709 67.7248 29.1709C67.2222 29.1709 66.8963 29.517 66.8963 30.1684V31.7157H66.4229V28.7112H66.8763V29.1645C67.0688 28.8584 67.4039 28.683 67.8182 28.683C68.4542 28.683 68.9026 29.1027 68.9026 29.9867H68.9035Z" fill="white"/>
<path d="M71.8525 29.9022V31.7166H71.4041V31.3195C71.2466 31.5912 70.9556 31.7502 70.5464 31.7502C69.9546 31.7502 69.5803 31.3877 69.5803 30.8662C69.5803 30.3847 69.8512 29.9876 70.6306 29.9876H71.3799V29.8795C71.3799 29.4207 71.1482 29.1536 70.6798 29.1536C70.3688 29.1536 70.0538 29.2781 69.8512 29.4771L69.6537 29.0691C69.9246 28.8193 70.3147 28.6839 70.7339 28.6839C71.4491 28.6839 71.8534 29.0809 71.8534 29.9022H71.8525ZM71.3791 30.798V30.3783H70.6489C70.1805 30.3783 70.0471 30.5882 70.0471 30.8435C70.0471 31.1442 70.2638 31.3313 70.6239 31.3313C70.984 31.3313 71.2599 31.1442 71.3782 30.799L71.3791 30.798Z" fill="white"/>
<path d="M74.0814 26.9886C74.0814 26.8015 74.2098 26.6543 74.3723 26.6543C74.5349 26.6543 74.6632 26.8015 74.6632 26.9886C74.6632 27.1758 74.5349 27.323 74.3723 27.323C74.2098 27.323 74.0814 27.1812 74.0814 26.9886ZM74.1256 27.7481H74.619V31.7157H74.1256V27.7481Z" fill="white"/>
<path d="M78.0507 27.5101V31.7166H77.5973V31.2405C77.3856 31.5803 77.0497 31.7511 76.6654 31.7511C75.901 31.7511 75.3442 31.1333 75.3442 30.2148C75.3442 29.2963 75.9019 28.6839 76.6654 28.6839C77.0355 28.6839 77.3606 28.8429 77.5773 29.1654V27.5101H78.0507ZM77.5823 30.2139C77.5823 29.5734 77.2022 29.1591 76.7046 29.1591C76.207 29.1591 75.8219 29.5724 75.8219 30.2139C75.8219 30.8553 76.202 31.2741 76.7046 31.2741C77.2072 31.2741 77.5823 30.8544 77.5823 30.2139Z" fill="white"/>
<path d="M81.0189 29.9022V31.7166H80.5705V31.3195C80.4129 31.5912 80.122 31.7502 79.7128 31.7502C79.1209 31.7502 78.7467 31.3877 78.7467 30.8662C78.7467 30.3847 79.0176 29.9876 79.7969 29.9876H80.5463V29.8795C80.5463 29.4207 80.3146 29.1536 79.8461 29.1536C79.5352 29.1536 79.2202 29.2781 79.0176 29.4771L78.82 29.0691C79.0909 28.8193 79.481 28.6839 79.9003 28.6839C80.6155 28.6839 81.0198 29.0809 81.0198 29.9022H81.0189ZM80.5455 30.798V30.3783H79.8153C79.3468 30.3783 79.2135 30.5882 79.2135 30.8435C79.2135 31.1442 79.4302 31.3313 79.7903 31.3313C80.1504 31.3313 80.4263 31.1442 80.5446 30.799L80.5455 30.798Z" fill="white"/>
<path d="M83.3019 28.683V29.21C83.2628 29.2045 83.2277 29.2045 83.1936 29.2045C82.6859 29.2045 82.37 29.5616 82.37 30.2193V31.7157H81.8966V28.7112H82.35V29.2154C82.5176 28.8638 82.8435 28.683 83.3019 28.683Z" fill="white"/>
<path d="M86.221 30.2139C86.221 31.1042 85.6634 31.7447 84.909 31.7447C84.1547 31.7447 83.6171 31.1215 83.6171 30.1975C83.6171 30.1521 83.6221 30.084 83.6271 30.0331H85.7476C85.6884 29.5061 85.3183 29.1545 84.8007 29.1545C84.4948 29.1545 84.2389 29.2736 84.0463 29.517L83.7846 29.1654C84.0213 28.8484 84.3814 28.6776 84.8148 28.6776C85.6584 28.6776 86.2202 29.3181 86.2202 30.2139H86.221ZM85.7476 30.4237H84.0713C84.1205 30.928 84.4514 31.285 84.9099 31.285C85.3683 31.285 85.6984 30.9334 85.7484 30.4237H85.7476Z" fill="white"/>
<path d="M89.2284 30.3956H87.1079C87.167 30.9225 87.5371 31.2741 88.0548 31.2741C88.3607 31.2741 88.6166 31.1551 88.8091 30.9116L89.0708 31.2632C88.8341 31.5803 88.474 31.7511 88.0406 31.7511C87.1971 31.7511 86.6353 31.1106 86.6353 30.2148C86.6353 29.319 87.1929 28.6839 87.9472 28.6839C88.7016 28.6839 89.2392 29.3072 89.2392 30.2311C89.2392 30.2766 89.2342 30.3447 89.2292 30.3956H89.2284ZM87.1087 30.004H88.7849C88.7358 29.4998 88.4057 29.1427 87.9464 29.1427C87.4871 29.1427 87.1579 29.4943 87.1079 30.004H87.1087Z" fill="white"/>
<path d="M91.3639 31.5403C91.2205 31.682 91.0038 31.7502 90.7921 31.7502C90.2645 31.7502 89.9636 31.4158 89.9636 30.8089V29.1591H89.5201V28.7112H89.9636V28.0534H90.437V28.7112H91.1864V29.1591H90.437V30.7862C90.437 31.1097 90.5854 31.2905 90.8463 31.2905C90.9847 31.2905 91.1172 31.2396 91.2164 31.1487L91.3639 31.5394V31.5403Z" fill="white"/>
<path d="M96.2752 29.9867V31.7157H95.8017V30.0494C95.8017 29.4598 95.555 29.1709 95.1266 29.1709C94.6531 29.1709 94.3422 29.517 94.3422 30.1684V31.7157H93.8688V30.0494C93.8688 29.4598 93.622 29.1709 93.1936 29.1709C92.7201 29.1709 92.4092 29.517 92.4092 30.1684V31.7157H91.9358V28.7112H92.3892V29.1591C92.5768 28.8529 92.8969 28.683 93.292 28.683C93.6871 28.683 94.0263 28.8647 94.1988 29.2381C94.3964 28.8983 94.7606 28.683 95.2049 28.683C95.8409 28.683 96.2752 29.1027 96.2752 29.9867Z" fill="white"/>
<path d="M99.5243 30.2139C99.5243 31.1042 98.9666 31.7447 98.2123 31.7447C97.4579 31.7447 96.9203 31.1215 96.9203 30.1975C96.9203 30.1521 96.9253 30.084 96.9303 30.0331H99.0508C98.9916 29.5061 98.6215 29.1545 98.1039 29.1545C97.798 29.1545 97.5421 29.2736 97.3496 29.517L97.0878 29.1654C97.3246 28.8484 97.6846 28.6776 98.1181 28.6776C98.9616 28.6776 99.5234 29.3181 99.5234 30.2139H99.5243ZM99.0508 30.4237H97.3746C97.4237 30.928 97.7547 31.285 98.2131 31.285C98.6715 31.285 99.0016 30.9334 99.0516 30.4237H99.0508Z" fill="white"/>
<path d="M104.775 31.7157L104.77 28.8247L103.523 31.2341H103.296L102.048 28.842V31.7157H101.575V27.7481H101.979L103.418 30.5373L104.839 27.7481H105.243L105.248 31.7157H104.775H104.775Z" fill="white"/>
<path d="M105.974 30.2139C105.974 29.3181 106.551 28.683 107.335 28.683C108.12 28.683 108.691 29.3181 108.691 30.2139C108.691 31.1097 108.12 31.7502 107.335 31.7502C106.551 31.7502 105.974 31.1097 105.974 30.2139ZM108.212 30.2139C108.212 29.5734 107.837 29.1591 107.334 29.1591C106.832 29.1591 106.452 29.5725 106.452 30.2139C106.452 30.8553 106.832 31.2741 107.334 31.2741C107.837 31.2741 108.212 30.8544 108.212 30.2139Z" fill="white"/>
<path d="M111.812 27.5101V31.7166H111.359V31.2405C111.147 31.5803 110.811 31.7511 110.427 31.7511C109.663 31.7511 109.106 31.1333 109.106 30.2148C109.106 29.2963 109.663 28.6839 110.427 28.6839C110.797 28.6839 111.122 28.8429 111.339 29.1654V27.5101H111.812ZM111.344 30.2139C111.344 29.5734 110.964 29.1591 110.466 29.1591C109.968 29.1591 109.583 29.5724 109.583 30.2139C109.583 30.8553 109.963 31.2741 110.466 31.2741C110.969 31.2741 111.344 30.8544 111.344 30.2139Z" fill="white"/>
<path d="M115.146 28.7121V31.7166H114.697V31.2632C114.505 31.5748 114.179 31.7511 113.809 31.7511C113.133 31.7511 112.685 31.3259 112.685 30.4419V28.713H113.158V30.3792C113.158 30.9689 113.415 31.2632 113.864 31.2632C114.357 31.2632 114.672 30.9116 114.672 30.2657V28.7121H115.146Z" fill="white"/>
<path d="M116.047 27.5101H116.521V31.7166H116.047V27.5101Z" fill="white"/>
<path d="M119.859 28.7121V31.7166H119.411V31.2632C119.218 31.5748 118.893 31.7511 118.523 31.7511C117.847 31.7511 117.399 31.3259 117.399 30.4419V28.713H117.872V30.3792C117.872 30.9689 118.129 31.2632 118.577 31.2632C119.071 31.2632 119.386 30.9116 119.386 30.2657V28.7121H119.859Z" fill="white"/>
<path d="M12.2446 31.7274H0.49176C1.01022 31.294 1.52867 30.8616 2.04713 30.4282C4.91866 30.3764 7.7902 30.3255 10.6609 30.2737C10.7109 25.742 10.7618 21.2103 10.8118 16.6786L18.6245 13.7468L18.6887 0.337967C22.6672 3.21525 26.6456 6.09163 30.6241 8.96892C30.6099 16.5551 30.5966 24.1412 30.5824 31.7274H28.9987C28.9954 24.5673 28.992 17.4064 28.9895 10.2463L20.0682 3.28158L20.0207 13.2226L24.9427 11.3756L25.0961 31.7183H18.5403L18.6187 15.3549L12.2063 17.7607C12.2196 22.4159 12.2329 27.0712 12.2463 31.7265L12.2446 31.7274ZM19.939 30.2001H23.6907L23.5649 13.4979L20.0123 14.8307L19.939 30.1993V30.2001Z" fill="#FCB61A"/>
<path d="M30.7491 31.9091H28.832L28.8228 10.3399L20.2332 3.63409L20.1882 12.9673L25.1069 11.1221L25.2628 31.9H18.3711L18.4486 15.6102L12.3713 17.8906L12.4113 31.9091H0L1.98881 30.2474L10.4959 30.0948L10.6468 16.5478L18.4586 13.616L18.5237 0L30.7908 8.8708L30.7483 31.9082L30.7491 31.9091ZM29.1654 31.5457H30.4157L30.4566 9.06613L18.8529 0.675031L18.7896 13.8758L10.976 16.8076L10.8243 30.4518L2.10301 30.6081L0.981887 31.5448H12.0763L12.0363 17.6308L18.7837 15.0987L18.7054 31.5357H24.926L24.776 11.6291L19.8515 13.477L19.9015 2.92816L29.1546 10.1518L29.1637 31.5448L29.1654 31.5457ZM23.8583 30.3819H19.7715L19.8465 14.7017L23.7299 13.2444L23.8591 30.3819H23.8583ZM20.1066 30.0184H23.5224L23.3999 13.7523L20.1782 14.9615L20.1066 30.0184Z" fill="#FCB61A"/>
<path d="M7.05086 27.3919C7.00251 22.962 6.95417 18.5311 6.90582 14.1012C9.46645 13.109 12.0271 12.1179 14.5877 11.1257C15.4321 11.3765 16.2764 11.6273 17.1208 11.8789C14.1834 12.9782 11.2469 14.0775 8.3095 15.1768L8.44286 28.4467C7.97858 28.0951 7.5143 27.7435 7.05002 27.3919H7.05086Z" fill="#FCB61A"/>
<path d="M8.61378 28.7965L6.88503 27.4873L6.73749 13.9731L14.5811 10.935L17.6868 11.858L8.47709 15.305L8.61294 28.7956L8.61378 28.7965ZM7.21677 27.2956L8.27371 28.096L8.142 15.0469L16.5549 11.898L14.5952 11.3156L7.07507 14.2284L7.21761 27.2956H7.21677Z" fill="#FCB61A"/>
<path d="M2.87233 25.1143C2.82398 20.6334 2.77564 16.1535 2.72729 11.6727C4.96701 10.8214 7.20587 9.96922 9.44558 9.11794C10.1874 9.36869 10.9293 9.61944 11.6711 9.8711C9.15803 10.8296 6.64407 11.7881 4.13096 12.7466L4.26433 26.0173C3.80005 25.7166 3.33577 25.4159 2.8715 25.1143H2.87233Z" fill="#FCB61A"/>
<path d="M4.43519 26.3389L2.70644 25.2187L2.5589 11.5446L9.44222 8.92714L12.2029 9.8611L4.29848 12.8756L4.43435 26.3399L4.43519 26.3389ZM3.03818 25.0107L4.0951 25.6957L3.96339 12.6176L11.1401 9.88109L9.4489 9.30872L2.89565 11.8008L3.03818 25.0098V25.0107Z" fill="#FCB61A"/>
</svg>
