<svg width="103" height="98" viewBox="0 0 103 98" fill="none" xmlns="http://www.w3.org/2000/svg">
<path d="M40.6277 96.5421H1.71667C3.43318 95.2256 5.14968 93.9118 6.86618 92.5953C16.3732 92.4379 25.8802 92.2834 35.3844 92.1261C35.55 78.3592 35.7183 64.5923 35.8839 50.8254L61.7501 41.9189L61.9626 1.18408C75.1344 9.925 88.3062 18.6632 101.478 27.4041C101.431 50.4501 101.387 73.4961 101.34 96.5421H96.0967C96.0856 74.7905 96.0746 53.0362 96.0663 31.2846L66.5298 10.1265L66.3725 40.3264L82.6682 34.7153L83.176 96.5145H61.4714L61.7308 46.8041L40.5008 54.1126C40.5449 68.2548 40.5891 82.3971 40.6332 96.5393L40.6277 96.5421ZM66.102 91.9025H78.5232L78.1065 41.1627L66.3449 45.2116L66.102 91.8998V91.9025Z" fill="#0071CE"/>
<path d="M101.892 97.0939H95.5448L95.5144 31.5688L67.0762 11.1972L66.9272 39.5507L83.2119 33.9451L83.7279 97.0663H60.9112L61.1678 47.5795L41.0472 54.5071L41.1797 97.0939H0.088501L6.67302 92.0459L34.838 91.5822L35.3375 50.4279L61.2009 41.5213L61.4162 0.157227L102.03 27.1059L101.889 97.0912L101.892 97.0939ZM96.6486 95.9899H100.788L100.923 27.6993L62.5062 2.2079L62.2965 42.3107L36.4276 51.2172L35.9253 92.6669L7.05109 93.1416L3.33937 95.9872H40.0703L39.9378 53.7178L62.2772 46.0257L62.0178 95.9596H82.613L82.1163 35.4852L65.8123 41.0991L65.9779 9.0527L96.6127 30.9975L96.6431 95.9872L96.6486 95.9899ZM79.0779 92.4544H65.5474L65.7957 44.8195L78.6529 40.3925L79.0807 92.4544H79.0779ZM66.6568 91.3504H77.9658L77.5601 41.9353L66.8941 45.6089L66.6568 91.3504Z" fill="#0071CE"/>
</svg>
