<svg width="133" height="33" viewBox="0 0 133 33" fill="none" xmlns="http://www.w3.org/2000/svg">
<g clip-path="url(#clip0_5_277)">
<path d="M62 21.1074V25H45V0H61.547V3.8926H49.2097V10.3929H60.1547V14.2145H49.2097V21.1074H62Z" fill="white"/>
<path d="M86 18.214C86 22.4993 83.1286 25 77.6302 25H67V0H77.0192C82.151 0 84.9002 2.53576 84.9002 6.50026C84.9002 9.07197 83.8003 10.9643 82.151 12.0004C84.4421 12.8576 86 14.9648 86 18.2149V18.214ZM70.9705 3.6428V10.5357H76.5911C79.3403 10.5357 80.8982 9.39274 80.8982 7.10678C80.8982 4.82081 79.3403 3.6428 76.5911 3.6428H70.9705ZM81.998 17.7503C81.998 15.2505 80.3786 14.1435 77.385 14.1435H70.9705V21.3572H77.385C80.3786 21.3572 81.998 20.2502 81.998 17.7503Z" fill="white"/>
<path d="M91 0H95V25H91V0Z" fill="white"/>
<path d="M121.985 25L121.952 8.42858L114.446 22.1425H112.553L105.047 8.64243V24.9991H101V0H104.492L113.565 16.5714L122.475 0H125.967L126 25H121.985H121.985Z" fill="white"/>
<path d="M39 0V0V33V33V0Z" stroke="#FCB61A" stroke-width="4" stroke-miterlimit="10"/>
<path d="M47.5048 32.6707V33.1751H45V29.1184H47.4357V29.6228H45.4926V30.8695H47.2231V31.3618H45.4926V32.6716H47.5048V32.6707Z" fill="#FCB61A"/>
<path d="M48.2341 28.875H48.7076V33.176H48.2341V28.875Z" fill="#FCB61A"/>
<path d="M51.9627 31.8244H49.8421C49.9013 32.3631 50.2714 32.7227 50.7891 32.7227C51.095 32.7227 51.3509 32.601 51.5434 32.352L51.8052 32.7115C51.5684 33.0357 51.2083 33.2104 50.7749 33.2104C49.9313 33.2104 49.3695 32.5554 49.3695 31.6395C49.3695 30.7236 49.9263 30.0742 50.6815 30.0742C51.4367 30.0742 51.9735 30.7115 51.9735 31.6562C51.9735 31.7027 51.9685 31.7723 51.9635 31.8244H51.9627ZM49.8421 31.4249H51.5184C51.4692 30.9093 51.1383 30.5443 50.6799 30.5443C50.2214 30.5443 49.8905 30.9038 49.8413 31.4249H49.8421Z" fill="#FCB61A"/>
<path d="M53.644 31.7435L53.1014 32.3344V33.1751H52.6279V28.874H53.1014V31.633L54.5268 30.103H55.0986L53.9991 31.372L55.207 33.1741H54.6251L53.644 31.7426V31.7435Z" fill="#FCB61A"/>
<path d="M57.135 32.996C56.9916 33.1409 56.7749 33.2106 56.5632 33.2106C56.0355 33.2106 55.7346 32.8687 55.7346 32.2482V30.5612H55.2911V30.1032H55.7346V29.4307H56.2081V30.1032H56.9574V30.5612H56.2081V32.2249C56.2081 32.5557 56.3556 32.7405 56.6173 32.7405C56.7557 32.7405 56.8882 32.6885 56.9874 32.5956L57.135 32.995V32.996Z" fill="#FCB61A"/>
<path d="M59.1122 30.0742V30.613C59.073 30.6074 59.038 30.6074 59.0038 30.6074C58.4962 30.6074 58.1802 30.9725 58.1802 31.6451V33.175H57.7068V30.103H58.1602V30.6186C58.3278 30.2591 58.6537 30.0742 59.1122 30.0742Z" fill="#FCB61A"/>
<path d="M59.4281 31.6395C59.4281 30.7236 60.0049 30.0742 60.7893 30.0742C61.5737 30.0742 62.1455 30.7236 62.1455 31.6395C62.1455 32.5554 61.5737 33.2104 60.7893 33.2104C60.0049 33.2104 59.4281 32.5554 59.4281 31.6395ZM61.6662 31.6395C61.6662 30.9846 61.2911 30.561 60.7885 30.561C60.2858 30.561 59.9057 30.9837 59.9057 31.6395C59.9057 32.2953 60.2858 32.7236 60.7885 32.7236C61.2911 32.7236 61.6662 32.2944 61.6662 31.6395Z" fill="#FCB61A"/>
<path d="M65.2813 31.4073V33.175H64.8079V31.4714C64.8079 30.8685 64.5511 30.5731 64.1027 30.5731C63.6 30.5731 63.2741 30.927 63.2741 31.593V33.175H62.8007V30.103H63.2541V30.5666C63.4467 30.2535 63.7818 30.0742 64.196 30.0742C64.832 30.0742 65.2813 30.5034 65.2813 31.4073Z" fill="#FCB61A"/>
<path d="M70.5229 32.0799C70.5229 32.7757 70.0744 33.1751 69.2017 33.1751H67.5546V29.1184H69.1033C69.8969 29.1184 70.3412 29.5123 70.3412 30.1672C70.3412 30.6075 70.1486 30.915 69.8777 31.0711C70.267 31.1983 70.5237 31.5402 70.5237 32.0799H70.5229ZM68.0472 29.5875V30.8862H69.0583C69.5609 30.8862 69.8477 30.666 69.8477 30.2369C69.8477 29.8077 69.5618 29.5875 69.0583 29.5875H68.0472ZM70.0244 32.0335C70.0244 31.5643 69.7285 31.3553 69.1808 31.3553H68.0464V32.706H69.1808C69.7285 32.706 70.0244 32.5035 70.0244 32.0335Z" fill="#FCB61A"/>
<path d="M71.1338 29.1529C71.1338 28.9504 71.2722 28.7878 71.4539 28.7878C71.6356 28.7878 71.7748 28.9439 71.7748 29.1418C71.7748 29.3508 71.6414 29.5124 71.4539 29.5124C71.2663 29.5124 71.1338 29.3564 71.1338 29.1529ZM71.218 30.1032H71.6914V33.1753H71.218V30.1032Z" fill="#FCB61A"/>
<path d="M75.0741 31.4073V33.175H74.6006V31.4714C74.6006 30.8685 74.3439 30.5731 73.8954 30.5731C73.3928 30.5731 73.0668 30.927 73.0668 31.593V33.175H72.5934V30.103H73.0468V30.5666C73.2394 30.2535 73.5745 30.0742 73.9888 30.0742C74.6248 30.0742 75.0732 30.5034 75.0732 31.4073H75.0741Z" fill="#FCB61A"/>
<path d="M78.0231 31.3209V33.176H77.5747V32.7701C77.4171 33.0478 77.1262 33.2104 76.7169 33.2104C76.1251 33.2104 75.7509 32.8398 75.7509 32.3065C75.7509 31.8142 76.0218 31.4082 76.8011 31.4082H77.5505V31.2977C77.5505 30.8286 77.3188 30.5555 76.8503 30.5555C76.5394 30.5555 76.2243 30.6827 76.0218 30.8862L75.8242 30.4691C76.0951 30.2136 76.4852 30.0752 76.9045 30.0752C77.6197 30.0752 78.024 30.4811 78.024 31.3209H78.0231ZM77.5497 32.2359V31.8068H76.8195C76.351 31.8068 76.2176 32.0213 76.2176 32.2824C76.2176 32.5899 76.4344 32.7812 76.7945 32.7812C77.1546 32.7812 77.4305 32.5899 77.5488 32.2369L77.5497 32.2359Z" fill="#FCB61A"/>
<path d="M80.2513 28.3419C80.2513 28.1505 80.3797 28 80.5423 28C80.7048 28 80.8332 28.1505 80.8332 28.3419C80.8332 28.5332 80.7048 28.6837 80.5423 28.6837C80.3797 28.6837 80.2513 28.5388 80.2513 28.3419ZM80.2964 29.1185H80.7898V33.1752H80.2964V29.1185Z" fill="#FCB61A"/>
<path d="M84.2207 28.875V33.176H83.7673V32.6893C83.5555 33.0367 83.2196 33.2113 82.8354 33.2113C82.071 33.2113 81.5142 32.5796 81.5142 31.6405C81.5142 30.7013 82.0718 30.0752 82.8354 30.0752C83.2055 30.0752 83.5305 30.2378 83.7473 30.5675V28.875H84.2207ZM83.7523 31.6396C83.7523 30.9846 83.3722 30.561 82.8745 30.561C82.3769 30.561 81.9918 30.9837 81.9918 31.6396C81.9918 32.2954 82.3719 32.7236 82.8745 32.7236C83.3772 32.7236 83.7523 32.2945 83.7523 31.6396Z" fill="#FCB61A"/>
<path d="M87.1899 31.3209V33.176H86.7414V32.7701C86.5839 33.0478 86.293 33.2104 85.8837 33.2104C85.2919 33.2104 84.9176 32.8398 84.9176 32.3065C84.9176 31.8142 85.1885 31.4082 85.9679 31.4082H86.7173V31.2977C86.7173 30.8286 86.4855 30.5555 86.0171 30.5555C85.7062 30.5555 85.3911 30.6827 85.1885 30.8862L84.991 30.4691C85.2619 30.2136 85.652 30.0752 86.0713 30.0752C86.7864 30.0752 87.1907 30.4811 87.1907 31.3209H87.1899ZM86.7164 32.2359V31.8068H85.9862C85.5178 31.8068 85.3844 32.0213 85.3844 32.2824C85.3844 32.5899 85.6011 32.7812 85.9612 32.7812C86.3213 32.7812 86.5972 32.5899 86.7156 32.2369L86.7164 32.2359Z" fill="#FCB61A"/>
<path d="M89.4722 30.0742V30.613C89.433 30.6074 89.398 30.6074 89.3638 30.6074C88.8562 30.6074 88.5402 30.9725 88.5402 31.6451V33.175H88.0668V30.103H88.5202V30.6186C88.6878 30.2591 89.0137 30.0742 89.4722 30.0742Z" fill="#FCB61A"/>
<path d="M92.392 31.6397C92.392 32.5501 91.8344 33.205 91.08 33.205C90.3256 33.205 89.788 32.5677 89.788 31.623C89.788 31.5765 89.793 31.5069 89.798 31.4548H91.9185C91.8594 30.916 91.4893 30.5565 90.9716 30.5565C90.6657 30.5565 90.4098 30.6782 90.2172 30.9272L89.9555 30.5677C90.1922 30.2435 90.5523 30.0688 90.9858 30.0688C91.8294 30.0688 92.3912 30.7238 92.3912 31.6397H92.392ZM91.9185 31.8543H90.2423C90.2914 32.3699 90.6224 32.7349 91.0808 32.7349C91.5393 32.7349 91.8694 32.3754 91.9194 31.8543H91.9185Z" fill="#FCB61A"/>
<path d="M95.3996 31.8244H93.279C93.3382 32.3631 93.7083 32.7227 94.226 32.7227C94.5319 32.7227 94.7878 32.601 94.9803 32.352L95.2421 32.7115C95.0053 33.0357 94.6452 33.2104 94.2118 33.2104C93.3682 33.2104 92.8064 32.5554 92.8064 31.6395C92.8064 30.7236 93.364 30.0742 94.1184 30.0742C94.8728 30.0742 95.4104 30.7115 95.4104 31.6562C95.4104 31.7027 95.4054 31.7723 95.4004 31.8244H95.3996ZM93.279 31.4249H94.9553C94.9061 30.9093 94.576 30.5443 94.1168 30.5443C93.6575 30.5443 93.3282 30.9038 93.2782 31.4249H93.279Z" fill="#FCB61A"/>
<path d="M97.5351 32.996C97.3917 33.1409 97.175 33.2106 96.9633 33.2106C96.4357 33.2106 96.1347 32.8687 96.1347 32.2482V30.5612H95.6913V30.1032H96.1347V29.4307H96.6082V30.1032H97.3576V30.5612H96.6082V32.2249C96.6082 32.5557 96.7566 32.7405 97.0175 32.7405C97.1559 32.7405 97.2884 32.6885 97.3876 32.5956L97.5351 32.995V32.996Z" fill="#FCB61A"/>
<path d="M102.446 31.4073V33.175H101.973V31.4714C101.973 30.8685 101.726 30.5731 101.298 30.5731C100.824 30.5731 100.513 30.927 100.513 31.593V33.175H100.04V31.4714C100.04 30.8685 99.7932 30.5731 99.3648 30.5731C98.8913 30.5731 98.5804 30.927 98.5804 31.593V33.175H98.1069V30.103H98.5604V30.561C98.7479 30.2479 99.068 30.0742 99.4631 30.0742C99.8582 30.0742 100.198 30.26 100.37 30.6418C100.568 30.2944 100.932 30.0742 101.376 30.0742C102.012 30.0742 102.446 30.5034 102.446 31.4073Z" fill="#FCB61A"/>
<path d="M105.696 31.6397C105.696 32.5501 105.138 33.205 104.384 33.205C103.629 33.205 103.092 32.5677 103.092 31.623C103.092 31.5765 103.097 31.5069 103.102 31.4548H105.222C105.163 30.916 104.793 30.5565 104.275 30.5565C103.969 30.5565 103.714 30.6782 103.521 30.9272L103.259 30.5677C103.496 30.2435 103.856 30.0688 104.29 30.0688C105.133 30.0688 105.695 30.7238 105.695 31.6397H105.696ZM105.222 31.8543H103.546C103.595 32.3699 103.926 32.7349 104.385 32.7349C104.843 32.7349 105.173 32.3754 105.223 31.8543H105.222Z" fill="#FCB61A"/>
<path d="M110.947 33.1751L110.942 30.2192L109.694 32.6828H109.468L108.22 30.2369V33.1751H107.746V29.1184H108.15L109.59 31.9703L111.01 29.1184H111.415L111.42 33.1751H110.946H110.947Z" fill="#FCB61A"/>
<path d="M112.145 31.6395C112.145 30.7236 112.722 30.0742 113.506 30.0742C114.291 30.0742 114.862 30.7236 114.862 31.6395C114.862 32.5554 114.291 33.2104 113.506 33.2104C112.722 33.2104 112.145 32.5554 112.145 31.6395ZM114.384 31.6395C114.384 30.9846 114.009 30.561 113.506 30.561C113.004 30.561 112.623 30.9837 112.623 31.6395C112.623 32.2953 113.004 32.7236 113.506 32.7236C114.009 32.7236 114.384 32.2944 114.384 31.6395Z" fill="#FCB61A"/>
<path d="M117.984 28.875V33.176H117.531V32.6893C117.319 33.0367 116.983 33.2113 116.599 33.2113C115.834 33.2113 115.277 32.5796 115.277 31.6405C115.277 30.7013 115.835 30.0752 116.599 30.0752C116.969 30.0752 117.294 30.2378 117.511 30.5675V28.875H117.984ZM117.516 31.6396C117.516 30.9846 117.135 30.561 116.638 30.561C116.14 30.561 115.755 30.9837 115.755 31.6396C115.755 32.2954 116.135 32.7236 116.638 32.7236C117.14 32.7236 117.516 32.2945 117.516 31.6396Z" fill="#FCB61A"/>
<path d="M121.317 30.103V33.1751H120.868V32.7115C120.676 33.0301 120.351 33.2104 119.98 33.2104C119.304 33.2104 118.856 32.7756 118.856 31.8717V30.104H119.329V31.8077C119.329 32.4105 119.586 32.7115 120.035 32.7115C120.528 32.7115 120.843 32.352 120.843 31.6915V30.103H121.317Z" fill="#FCB61A"/>
<path d="M122.219 28.875H122.693V33.176H122.219V28.875Z" fill="#FCB61A"/>
<path d="M126.031 30.103V33.1751H125.583V32.7115C125.39 33.0301 125.065 33.2104 124.695 33.2104C124.019 33.2104 123.571 32.7756 123.571 31.8717V30.104H124.044V31.8077C124.044 32.4105 124.301 32.7115 124.749 32.7115C125.243 32.7115 125.558 32.352 125.558 31.6915V30.103H126.031Z" fill="#FCB61A"/>
<path d="M13.5713 32.5354H0.545044C1.11968 32.0923 1.69431 31.6501 2.26895 31.207C5.4516 31.154 8.63426 31.102 11.816 31.0491C11.8714 26.4155 11.9278 21.7819 11.9832 17.1483L20.6424 14.1505L20.7136 0.440186C25.1231 3.38217 29.5326 6.32322 33.9422 9.26521C33.9265 17.0219 33.9117 24.7787 33.896 32.5354H32.1407C32.137 25.2143 32.1333 17.8924 32.1305 10.5713L22.2425 3.44998L22.1899 13.6145L27.6452 11.726L27.8152 32.5261H20.5491L20.636 15.7948L13.5288 18.2546C13.5436 23.0146 13.5584 27.7745 13.5732 32.5345L13.5713 32.5354ZM22.0994 30.9738H26.2576L26.1181 13.896L22.1807 15.2588L22.0994 30.9729V30.9738Z" fill="white"/>
<path d="M34.0798 32.7213H31.955L31.9448 10.6671L22.4246 3.81052L22.3747 13.3536L27.8263 11.4669L27.9991 32.712H20.3607L20.4466 16.0559L13.7108 18.3876L13.7552 32.7213H0L2.2043 31.0222L11.6331 30.8662L11.8003 17.0146L20.4586 14.0169L20.5307 0.0947266L34.127 9.16499L34.0798 32.7204V32.7213ZM32.3255 32.3497H33.7112L33.7565 9.36471L20.8965 0.784936L20.8263 14.2826L12.1662 17.2803L11.998 31.2313L2.33179 31.391L1.08922 32.3488H13.3856L13.3413 18.1219L20.8198 15.5329L20.733 32.3395H27.6277L27.4614 11.9853L22.0033 13.8748L22.0587 3.08873L32.3144 10.4748L32.3245 32.3488L32.3255 32.3497ZM26.4433 31.1597H21.9137L21.9968 15.127L26.301 13.637L26.4442 31.1597H26.4433ZM22.2851 30.7881H26.071L25.9352 14.1562L22.3645 15.3927L22.2851 30.7881Z" fill="white"/>
<path d="M7.8148 28.1026C7.76122 23.5731 7.70764 19.0426 7.65405 14.513C10.4921 13.4986 13.3302 12.4851 16.1682 11.4707C17.1041 11.7271 18.04 11.9835 18.9758 12.2408C15.7202 13.3648 12.4655 14.4889 9.20981 15.6129L9.35763 29.1811C8.84305 28.8216 8.32846 28.4621 7.81388 28.1026H7.8148Z" fill="white"/>
<path d="M9.54699 29.5388L7.63093 28.2002L7.46741 14.382L16.1608 11.2756L19.6031 12.2194L9.39548 15.7439L9.54607 29.5379L9.54699 29.5388ZM7.99862 28.0042L9.17006 28.8226L9.02409 15.4801L18.3485 12.2603L16.1765 11.6649L7.84157 14.6431L7.99954 28.0042H7.99862Z" fill="white"/>
<path d="M3.18358 25.7737C3.12999 21.1922 3.07641 16.6115 3.02283 12.0299C5.50521 11.1595 7.98666 10.2882 10.469 9.41772C11.2913 9.67411 12.1135 9.9305 12.9357 10.1878C10.1503 11.1679 7.36399 12.1479 4.57859 13.1279L4.7264 26.6971C4.21182 26.3896 3.69724 26.0821 3.18265 25.7737H3.18358Z" fill="white"/>
<path d="M4.91576 27.025L2.9997 25.8796L2.83618 11.898L10.4653 9.22168L13.5251 10.1766L4.76425 13.2589L4.91484 27.0259L4.91576 27.025ZM3.36647 25.6669L4.53791 26.3673L4.39194 12.9951L12.3463 10.1971L10.4718 9.61184L3.20849 12.1599L3.36647 25.6659V25.6669Z" fill="white"/>
</g>
<defs>
<clipPath id="clip0_5_277">
<rect width="133" height="33" fill="white"/>
</clipPath>
</defs>
</svg>
