<svg width="40" height="30" viewBox="0 0 40 30" fill="none" xmlns="http://www.w3.org/2000/svg">
<path d="M23.4132 12.7328L13.5045 15.4742L13.3131 28.1416L2.52265 28.2843L0 29.8373H15.7427L15.692 16.729L23.4006 14.5967L23.3022 29.8288H32.0437L31.846 10.4L25.6071 12.1254L25.6642 3.39813L36.5593 9.66853L36.571 29.8373H39.0027L39.0566 8.29568L23.4957 0L23.4132 12.7319V12.7328ZM29.8362 28.0694H25.5035L25.5944 13.9901L29.6807 12.8594L29.8362 28.0694Z" fill="#FCB61A"/>
<path d="M8.73295 25.6983L10.9257 26.9225L10.7534 14.307L22.4352 11.0847L18.4958 10.2207L8.54688 13.0615L8.73295 25.6983Z" fill="#FCB61A"/>
<path d="M5.62642 24.627L5.45408 12.0378L15.4802 9.21902L11.9785 8.3457L3.24756 10.7941L3.43364 23.5795L5.62642 24.627Z" fill="#FCB61A"/>
</svg>
