<svg width="24" height="24" viewBox="0 0 24 24" fill="none" xmlns="http://www.w3.org/2000/svg">
<path d="M12.75 6.75H7.5C7.08525 6.75 6.75 6.414 6.75 6C6.75 5.586 7.08525 5.25 7.5 5.25H12.75C13.1648 5.25 13.5 5.586 13.5 6C13.5 6.414 13.1648 6.75 12.75 6.75Z" fill="#EDEDED"/>
<path d="M15 10.5H7.5C7.08525 10.5 6.75 10.164 6.75 9.75C6.75 9.336 7.08525 9 7.5 9H15C15.4147 9 15.75 9.336 15.75 9.75C15.75 10.164 15.4147 10.5 15 10.5Z" fill="#EDEDED"/>
<path d="M11.895 13.5H7.5C7.08525 13.5 6.75 13.164 6.75 12.75C6.75 12.336 7.08525 12 7.5 12H11.895C12.3097 12 12.645 12.336 12.645 12.75C12.645 13.164 12.3097 13.5 11.895 13.5Z" fill="#EDEDED"/>
<path d="M10.095 16.5H7.5C7.08525 16.5 6.75 16.164 6.75 15.75C6.75 15.336 7.08525 15 7.5 15H10.095C10.5097 15 10.845 15.336 10.845 15.75C10.845 16.164 10.5097 16.5 10.095 16.5Z" fill="#EDEDED"/>
<path d="M10.095 21H6.75C4.68225 21 3 19.3178 3 17.25V4.5C3 2.43225 4.68225 0.75 6.75 0.75H15.75C17.8177 0.75 19.5 2.43225 19.5 4.5V10.65C19.5 11.064 19.1647 11.4 18.75 11.4C18.3352 11.4 18 11.064 18 10.65V4.5C18 3.2595 16.9905 2.25 15.75 2.25H6.75C5.5095 2.25 4.5 3.2595 4.5 4.5V17.25C4.5 18.4905 5.5095 19.5 6.75 19.5H10.095C10.5097 19.5 10.845 19.836 10.845 20.25C10.845 20.664 10.5097 21 10.095 21Z" fill="#EDEDED"/>
<path d="M17.25 23.25C14.3557 23.25 12 20.895 12 18C12 15.105 14.3557 12.75 17.25 12.75C20.1442 12.75 22.5 15.105 22.5 18C22.5 20.895 20.1442 23.25 17.25 23.25ZM17.25 14.25C15.1822 14.25 13.5 15.9323 13.5 18C13.5 20.0678 15.1822 21.75 17.25 21.75C19.3177 21.75 21 20.0678 21 18C21 15.9323 19.3177 14.25 17.25 14.25Z" fill="#EDEDED"/>
<path d="M16.7498 19.8998C16.5578 19.8998 16.3658 19.8263 16.2195 19.68L15.2198 18.6803C14.9265 18.387 14.9265 17.913 15.2198 17.6198C15.513 17.3265 15.987 17.3265 16.2803 17.6198L16.7498 18.0892L18.2198 16.62C18.513 16.3268 18.987 16.3268 19.2803 16.62C19.5735 16.9133 19.5735 17.388 19.2803 17.6805L17.28 19.6807C17.1338 19.827 16.9418 19.8998 16.7498 19.8998Z" fill="#EDEDED"/>
</svg>
