<svg width="24" height="25" viewBox="0 0 24 25" fill="none" xmlns="http://www.w3.org/2000/svg">
<path d="M9 21.5H15" stroke="#0066B9" stroke-width="2" stroke-linecap="round" stroke-linejoin="round"/>
<path d="M5.26879 10.25C5.26754 9.36085 5.44222 8.48025 5.78275 7.6589C6.12329 6.83755 6.62296 6.09169 7.25299 5.46428C7.88302 4.83687 8.63095 4.3403 9.45371 4.00318C10.2765 3.66606 11.1578 3.49505 12.0469 3.5C15.7594 3.52812 18.7313 6.6125 18.7313 10.3344V11C18.7313 14.3562 19.4344 16.3062 20.0532 17.375C20.1189 17.4888 20.1535 17.6179 20.1537 17.7493C20.1538 17.8808 20.1193 18.0099 20.0538 18.1239C19.9883 18.2378 19.894 18.3325 19.7804 18.3985C19.6667 18.4645 19.5377 18.4995 19.4063 18.5H4.59379C4.46237 18.4995 4.33337 18.4645 4.21972 18.3985C4.10607 18.3325 4.01177 18.2378 3.94626 18.1239C3.88074 18.0099 3.84632 17.8808 3.84644 17.7493C3.84655 17.6179 3.8812 17.4888 3.94692 17.375C4.56567 16.3062 5.26879 14.3562 5.26879 11V10.25Z" stroke="#0066B9" stroke-width="2" stroke-linecap="round" stroke-linejoin="round"/>
</svg>
