<svg width="161" height="160" viewBox="0 0 161 160" fill="none" xmlns="http://www.w3.org/2000/svg">
<g clip-path="url(#clip0_9_919)">
<path fill-rule="evenodd" clip-rule="evenodd" d="M30.5 135C29.1739 135 27.9021 134.473 26.9645 133.536C26.0268 132.598 25.5 131.326 25.5 130V30C25.5 28.6739 26.0268 27.4021 26.9645 26.4645C27.9021 25.5268 29.1739 25 30.5 25H123C124.989 25 126.897 24.2098 128.303 22.8033C129.71 21.3968 130.5 19.4891 130.5 17.5C130.5 15.5109 129.71 13.6032 128.303 12.1967C126.897 10.7902 124.989 10 123 10H30.5C25.1957 10 20.1086 12.1071 16.3579 15.8579C12.6071 19.6086 10.5 24.6957 10.5 30V130C10.5 135.304 12.6071 140.391 16.3579 144.142C20.1086 147.893 25.1957 150 30.5 150H130.5C135.804 150 140.891 147.893 144.642 144.142C148.393 140.391 150.5 135.304 150.5 130V97.5C150.5 95.5109 149.71 93.6032 148.303 92.1967C146.897 90.7902 144.989 90 143 90C141.011 90 139.103 90.7902 137.697 92.1967C136.29 93.6032 135.5 95.5109 135.5 97.5V130C135.5 131.326 134.973 132.598 134.036 133.536C133.098 134.473 131.826 135 130.5 135H30.5ZM158.3 46.8C159.625 45.3783 160.346 43.4978 160.312 41.5548C160.277 39.6118 159.49 37.7579 158.116 36.3838C156.742 35.0097 154.888 34.2225 152.945 34.1882C151.002 34.154 149.122 34.8752 147.7 36.2L92.12 91.77L73.39 72.41C72.7066 71.696 71.8889 71.124 70.9837 70.7271C70.0786 70.3301 69.1039 70.116 68.1157 70.097C67.1276 70.078 66.1454 70.2545 65.2257 70.6163C64.3059 70.9782 63.4668 71.5183 62.7565 72.2055C62.0462 72.8928 61.4787 73.7136 61.0867 74.6209C60.6947 75.5282 60.4859 76.504 60.4723 77.4923C60.4586 78.4806 60.6405 79.4618 61.0074 80.3795C61.3742 81.2973 61.9189 82.1335 62.61 82.84L86.64 107.68C87.3314 108.397 88.1588 108.969 89.0737 109.363C89.9887 109.757 90.9729 109.965 91.969 109.974C92.9651 109.983 93.9531 109.794 94.8752 109.417C95.7974 109.041 96.6353 108.484 97.34 107.78L158.3 46.8Z" fill="#0071CE"/>
</g>
<defs>
<clipPath id="clip0_9_919">
<rect width="160" height="160" fill="white" transform="translate(0.5)"/>
</clipPath>
</defs>
</svg>
