<svg width="71" height="70" viewBox="0 0 71 70" fill="none" xmlns="http://www.w3.org/2000/svg">
<rect width="71" height="70" rx="35" fill="#0071CE"/>
<path d="M36.8072 37.5051C35.6392 36.2109 34.873 34.7091 34.6731 32.8677C33.8882 33.5196 33.2939 34.2473 32.7781 35.0525C32.2324 35.9043 31.8493 36.8337 31.5447 37.8019C31.4568 37.8136 31.369 37.8175 31.283 37.8349C28.506 38.3957 25.9494 39.5036 23.6284 41.1839C22.4417 42.0435 21.3428 43.0059 20.3617 44.1215C19.6983 44.8744 19.1096 45.6835 18.5228 46.4946C17.822 44.1759 17.5846 41.8106 17.8649 39.393C17.8874 39.2009 17.9285 39.0107 17.9621 38.8187C18.0425 38.7178 18.1322 38.6246 18.1995 38.516C19.2572 36.7852 20.5523 35.2698 22.0474 33.931C23.6022 32.5378 25.3402 31.4493 27.2165 30.6033C29.3806 29.6274 31.6474 29.1074 34.0021 28.9308C35.6318 28.8085 37.2427 28.8978 38.8424 29.1694C41.283 29.5827 43.5836 30.4287 45.7271 31.7229C47.9454 33.0637 49.8684 34.7517 51.4531 36.8551C52.0044 37.5866 52.4735 38.3743 52.9818 39.133C53.1463 41.5312 52.7875 43.8499 51.9988 46.1026C51.0046 44.7017 49.8852 43.4211 48.5901 42.3132C46.3102 40.3593 43.7405 38.9797 40.8869 38.1803C39.5525 37.8058 38.2014 37.5206 36.8091 37.5051H36.8072Z" fill="white"/>
<path d="M52.9801 39.1332C52.4718 38.3726 52.0009 37.5849 51.4515 36.8553C49.8686 34.752 47.9437 33.0639 45.7254 31.7232C43.5819 30.429 41.2814 29.583 38.8407 29.1697C37.241 28.8981 35.6301 28.8088 34.0005 28.931C31.6439 29.1076 29.3789 29.6276 27.2148 30.6036C25.3367 31.4515 23.6005 32.5381 22.0457 33.9312C20.5525 35.2701 19.2555 36.7854 18.1978 38.5162C18.1305 38.6249 18.0408 38.718 17.9604 38.8189C18.1791 37.0183 18.7528 35.3283 19.448 33.6751C20.3787 31.4651 21.7915 29.616 23.3688 27.8794C25.4282 25.6131 27.5792 23.4361 29.5901 21.1213C29.8853 21.1329 30.1582 21.0281 30.4385 20.9602C33.1558 20.2966 35.8917 20.1453 38.6538 20.6245C38.8332 20.6556 39.022 20.7351 39.2014 20.6109C39.8218 22.4523 40.0461 24.3577 40.0797 26.2961C40.0984 27.3633 40.8198 28.186 41.8102 28.248C42.8605 28.314 43.6884 27.6 43.8155 26.5095C43.8977 25.7974 43.7501 25.1086 43.5744 24.4276C43.537 24.2801 43.5015 24.1326 43.4492 23.9192C44.3313 24.3926 45.1087 24.9126 45.8413 25.4986C49.6107 28.4983 51.9803 32.3945 52.8045 37.2705C52.9091 37.8856 52.997 38.5065 52.9764 39.1371L52.9801 39.1332Z" fill="white"/>
<path d="M36.8083 37.5051C38.1987 37.5206 39.5518 37.8059 40.8861 38.1804C43.7379 38.9798 46.3094 40.3613 48.5893 42.3132C49.8826 43.4212 51.0039 44.7037 51.9981 46.1027C51.372 48.0255 50.4488 49.7796 49.2229 51.359C48.0661 50.3559 46.8962 49.3741 45.5338 48.6755C44.962 48.3826 44.4219 48.0178 43.8033 47.8237C43.5716 46.7236 43.2259 45.668 42.7362 44.6591C42.0223 43.1864 40.9104 42.0494 39.834 40.8832C38.9033 39.8762 37.9409 38.9002 37.0569 37.8466C36.9672 37.7399 36.8906 37.6196 36.8083 37.5051Z" fill="white"/>
<path d="M18.5237 46.4948C19.1105 45.6818 19.701 44.8746 20.3626 44.1217C21.3437 43.0061 22.4426 42.0437 23.6293 41.1841C25.9503 39.5038 28.5087 38.3978 31.2839 37.8351C31.3699 37.8176 31.4577 37.8118 31.5456 37.8021C31.2559 38.8189 31.1157 39.8569 31.0896 40.9163C31.0728 41.6187 30.5943 42.0863 29.9702 42.0728C29.3179 42.0592 28.9236 41.611 28.9012 40.8814C28.89 40.5108 28.9722 40.1577 29.0339 39.8007C29.0376 39.7715 29.0432 39.7405 29.047 39.7114C29.0208 39.7192 28.9946 39.7269 28.9685 39.7366C26.3447 41.2345 24.631 43.4776 23.8704 46.4889C23.5975 47.5678 23.5115 48.6699 23.6199 49.7855C23.4723 49.8806 23.3228 49.9718 23.177 50.0708C22.4276 50.5888 21.796 51.2602 21.0802 51.8229C19.929 50.2027 19.0731 48.4293 18.5237 46.4967V46.4948Z" fill="white"/>
<path d="M39.2031 20.6108C39.0237 20.737 38.8349 20.6555 38.6555 20.6244C35.8953 20.1452 33.1575 20.2965 30.4402 20.9601C30.1599 21.028 29.8852 21.1328 29.5918 21.1211C30.2795 20.2577 30.9859 19.4098 31.6008 18.4862C32.8454 16.6196 33.6247 14.5745 33.8303 12.25C34.5797 12.8767 35.2375 13.5364 35.8299 14.2582C37.3212 16.0724 38.435 18.1136 39.1564 20.3819C39.1807 20.4556 39.1882 20.5352 39.205 20.6108H39.2031Z" fill="white"/>
<path d="M43.8006 47.8238C44.4192 48.0159 44.9592 48.3826 45.5311 48.6756C46.8935 49.3741 48.0633 50.3559 49.2201 51.3591C47.7905 53.3013 46.0338 54.8594 44.0211 56.1109C42.9746 56.7628 41.8776 57.31 40.7133 57.702C40.6442 57.7252 40.5806 57.7854 40.4517 57.7214C40.8572 57.3217 41.244 56.9239 41.5916 56.4931C42.9914 54.7585 43.7445 52.7561 43.9426 50.5073C44.023 49.5992 43.9314 48.7125 43.8006 47.8238Z" fill="white"/>
<path d="M28.968 39.7314C28.9966 39.724 29.0251 39.7167 29.0537 39.7075C29.0496 39.735 29.0435 39.7644 29.0394 39.7919C29.0149 39.7717 28.9925 39.7516 28.968 39.7295V39.7314Z" fill="white"/>
</svg>
