<svg width="24" height="25" viewBox="0 0 24 25" fill="none" xmlns="http://www.w3.org/2000/svg">
<path d="M12 12.5L6.3 8.225C6.20738 8.15464 6.13217 8.06395 6.08016 7.95992C6.02814 7.85589 6.00072 7.74131 6 7.625V4.25C6 4.05109 6.07902 3.86032 6.21967 3.71967C6.36032 3.57902 6.55109 3.5 6.75 3.5H17.25C17.4489 3.5 17.6397 3.57902 17.7803 3.71967C17.921 3.86032 18 4.05109 18 4.25V7.5875C17.9993 7.70381 17.9719 7.81839 17.9198 7.92242C17.8678 8.02645 17.7926 8.11714 17.7 8.1875L12 12.5Z" stroke="#FCB61A" stroke-width="2" stroke-linecap="round" stroke-linejoin="round"/>
<path d="M12 12.5L6.3 16.775C6.20738 16.8454 6.13217 16.936 6.08016 17.0401C6.02814 17.1441 6.00072 17.2587 6 17.375V20.75C6 20.9489 6.07902 21.1397 6.21967 21.2803C6.36032 21.421 6.55109 21.5 6.75 21.5H17.25C17.4489 21.5 17.6397 21.421 17.7803 21.2803C17.921 21.1397 18 20.9489 18 20.75V17.4125C17.9993 17.2962 17.9719 17.1816 17.9198 17.0776C17.8678 16.9735 17.7926 16.8829 17.7 16.8125L12 12.5Z" stroke="#FCB61A" stroke-width="2" stroke-linecap="round" stroke-linejoin="round"/>
<path d="M18 17.4125L6 17.375" stroke="#FCB61A" stroke-width="2" stroke-linecap="round" stroke-linejoin="round"/>
</svg>
